<svg xmlns="http://www.w3.org/2000/svg" width="1200" height="720" viewBox="0 0 1200 720">
  <defs>
    <linearGradient id="bg" x1="0" y1="0" x2="1" y2="1"><stop stop-color="#f7fcfd"/><stop offset="1" stop-color="#dff5f6"/></linearGradient>
    <linearGradient id="panel" x1="0" y1="0" x2="1" y2="1"><stop stop-color="#ffffff" stop-opacity=".96"/><stop offset="1" stop-color="#edfafa" stop-opacity=".9"/></linearGradient>
    <linearGradient id="signal" x1="0" y1="0" x2="1" y2="0"><stop stop-color="#0b62b5"/><stop offset="1" stop-color="#08adb3"/></linearGradient>
    <pattern id="grid" width="42" height="42" patternUnits="userSpaceOnUse"><path d="M42 0H0V42" fill="none" stroke="#80b8c3" stroke-opacity=".16"/></pattern>
    <filter id="shadow" x="-30%" y="-30%" width="160%" height="160%"><feDropShadow dx="0" dy="24" stdDeviation="28" flood-color="#346d7a" flood-opacity=".15"/></filter>
  </defs>
  <rect width="1200" height="720" fill="url(#bg)"/><rect width="1200" height="720" fill="url(#grid)"/>
  <circle cx="920" cy="128" r="210" fill="#75dce0" opacity=".11"/><circle cx="920" cy="128" r="150" fill="none" stroke="#16a9b0" stroke-opacity=".14"/>
  <g transform="translate(92 164)" filter="url(#shadow)">
    <path d="M0 100 230 0l230 100-230 100Z" fill="#fff" stroke="#9bcbd1" stroke-width="2"/>
    <path d="M0 100v242l230 102V200Z" fill="#e8f6f7" stroke="#9bcbd1" stroke-width="2"/>
    <path d="M460 100v242L230 444V200Z" fill="#d6eef0" stroke="#9bcbd1" stroke-width="2"/>
    <path d="M45 133 230 53l185 80-185 80Z" fill="#f8fdfd" stroke="#b4d8dc"/>
    <g fill="#0a98a0" opacity=".8"><path d="m70 126 52-23 52 23-52 23Z"/><path d="m145 94 52-23 52 23-52 23Z"/><path d="m220 126 52-23 52 23-52 23Z"/><path d="m295 94 52-23 52 23-52 23Z"/></g>
    <g fill="#0b62b5" opacity=".24"><path d="m70 174 52-23 52 23-52 23Z"/><path d="m145 142 52-23 52 23-52 23Z"/><path d="m220 174 52-23 52 23-52 23Z"/><path d="m295 142 52-23 52 23-52 23Z"/></g>
    <path d="M46 244 230 325l184-81M46 303l184 81 184-81" fill="none" stroke="#7ebbc3" stroke-width="2"/>
  </g>
  <path d="M470 355C560 355 567 250 660 250" fill="none" stroke="url(#signal)" stroke-width="5" stroke-linecap="round"/><circle cx="470" cy="355" r="10" fill="#08adb3" stroke="#fff" stroke-width="5"/><circle cx="660" cy="250" r="10" fill="#0b62b5" stroke="#fff" stroke-width="5"/>
  <g transform="translate(650 120)" filter="url(#shadow)">
    <rect width="454" height="474" rx="28" fill="url(#panel)" stroke="#83c7cd" stroke-width="2"/>
    <rect x="32" y="30" width="390" height="56" rx="12" fill="#071c2c"/>
    <circle cx="64" cy="58" r="9" fill="#18c2c7"/><rect x="88" y="49" width="126" height="18" rx="9" fill="#d9f7f8" opacity=".9"/>
    <g transform="translate(32 120)">
      <rect width="120" height="118" rx="16" fill="#e6f6f7"/><rect x="18" y="18" width="84" height="50" rx="10" fill="#fff" stroke="#9ed2d6"/><path d="M30 85h60" stroke="#0a9da4" stroke-width="8" stroke-linecap="round"/>
      <rect x="135" width="120" height="118" rx="16" fill="#edf5fb"/><rect x="153" y="18" width="84" height="50" rx="10" fill="#fff" stroke="#aacadd"/><path d="M165 85h60" stroke="#0b62b5" stroke-width="8" stroke-linecap="round"/>
      <rect x="270" width="120" height="118" rx="16" fill="#e6f6f7"/><rect x="288" y="18" width="84" height="50" rx="10" fill="#fff" stroke="#9ed2d6"/><path d="M300 85h60" stroke="#0a9da4" stroke-width="8" stroke-linecap="round"/>
    </g>
    <g transform="translate(32 270)"><rect width="390" height="54" rx="12" fill="#f2f7f8"/><circle cx="28" cy="27" r="10" fill="#09abb2"/><rect x="50" y="18" width="150" height="18" rx="9" fill="#b7cdd2"/><rect x="318" y="14" width="54" height="26" rx="13" fill="#d6f5ea"/></g>
    <g transform="translate(32 338)"><rect width="390" height="54" rx="12" fill="#f2f7f8"/><circle cx="28" cy="27" r="10" fill="#0b62b5"/><rect x="50" y="18" width="120" height="18" rx="9" fill="#b7cdd2"/><rect x="318" y="14" width="54" height="26" rx="13" fill="#d6f5ea"/></g>
    <rect x="244" y="420" width="178" height="32" rx="16" fill="url(#signal)"/>
  </g>
</svg>
